_________________________  Visit us at _________________________
  
http://p2pdl.com  ____________________________  http://p2pdl.com


The Liability 2012 BRRip 480p x264 AAC - VYTO


Genre: Animation
Plot: A group of animals plan a trip to Delhi in order to ask the parliament why the forest they live
in is on the verge of destruction.  
Director: Nikhil Advani
Stars: Cary Elwes, Christopher Lloyd, Troy Baker.
Rated: PG for violence and menacing action, rude humor, suggestive content and thematic elements.


Info: 
http://www.imdb.com/title/tt2081437/

Trailer:


Format                         : MPEG-4
File size                      : 351 MiB
Duration                       : 1h 26mn
Overall bit rate mode          : Variable
Overall bit rate               : 570 Kbps
Source                         : CHD 

Video
Format                         : AVC
Bit rate                       : 528 Kbps
Width                          : 720 pixels
Height                         : 304 pixels
Display aspect ratio           : 2.35:1
Frame rate mode                : Constant
Frame rate                     : 24.000 fps
Stream size                    : 324 MiB (92%)
Writing library                : x264 core 130 r2273

Audio
Format                         : AAC
Bit rate mode                  : Variable
Bit rate                       : 39.9 Kbps
Channel(s)                     : 2 channels
Channel positions              : Front: L R
Sampling rate                  : 48.0 KHz
Stream size                    : 24.6 MiB (7%)
Language                       : English

Subtitle                       : Yes(English)
 
http://ultraimg.com/images/fnDyJ.png 
http://ultraimg.com/images/2ru3e.png 
http://ultraimg.com/images/7bu2S.png 
http://ultraimg.com/images/hE5C8.png 
http://ultraimg.com/images/eUZrb.png 
http://ultraimg.com/images/EiWZt.png 
http://ultraimg.com/images/UgJxu.png 
http://ultraimg.com/images/UlbZp.png


----------------------------------------------------------------------------------------------------


Encoded using revolutionary 10bit encoding, which enables us to provide you more crispier 
and sharper images at small sizes, just make sure you follow our instructions without a fault.
Recommend to you to use latest version of VLC player. Install K-Lite Codec Pack or shark007 codecs
in case of any kind of problem in playback (For non-VLC Media Player users). Alternatively, install
Core AVC codecs, the fastest decoder that there is coupled with Community Center Codec Pack and play
on Windows Media Player Classic. Check sample to be sure.
Enjoy!

Encoder Notes:Looking For Early Access To Anything You Can Provide DVDScr, R5, DVDR, BluRay, Direct
Audio, Music Releases and Seedboxes. We require dedicated servers, so as to do more 
and fast releases of movies.
If You Got anything to offer please contact us at "contact@p2pdl.com".

Face book Fan Page:   
http://www.fb.me/p2pdl